<?xml version="1.0" encoding="utf-8"?>
<!-- Generator: Adobe Illustrator 23.0.0, SVG Export Plug-In . SVG Version: 6.00 Build 0)  -->
<svg version="1.1" id="Layer_1" xmlns="http://www.w3.org/2000/svg" xmlns:xlink="http://www.w3.org/1999/xlink" x="0px" y="0px"
	 viewBox="0 0 48 48" style="enable-background:new 0 0 48 48;" xml:space="preserve">
<style type="text/css">
	.st0{fill:none;stroke:#000000;stroke-miterlimit:10;}
	.st1{fill:none;stroke:#000000;stroke-width:4;stroke-miterlimit:10;}
	.st2{fill-rule:evenodd;clip-rule:evenodd;fill:none;stroke:#000000;stroke-miterlimit:10;}
	.st3{clip-path:url(#SVGID_2_);fill:#2994FF;}
	.st4{clip-path:url(#SVGID_4_);}
	.st5{fill:#2994FF;}
</style>
<g>
	<path d="M-627,0h-42c-1.7,0-3,1.3-3,3v42c0,1.7,1.3,3,3,3h42c1.7,0,3-1.3,3-3V3C-624,1.3-625.3,0-627,0z M-625,45c0,1.1-0.9,2-2,2
		h-42c-1.1,0-2-0.9-2-2V3c0-1.1,0.9-2,2-2h42c1.1,0,2,0.9,2,2V45z"/>
	<rect x="-660" y="23" width="24" height="1"/>
	<rect x="-660" y="9.5" width="24" height="4"/>
	<rect x="-660" y="29" width="18.5" height="1"/>
	<rect x="-660" y="35" width="12.5" height="1"/>
</g>
<g>
	<path d="M-531,0h-42c-1.7,0-3,1.3-3,3v42c0,1.7,1.3,3,3,3h42c1.7,0,3-1.3,3-3V3C-528,1.3-529.3,0-531,0z M-529,45c0,1.1-0.9,2-2,2
		h-42c-1.1,0-2-0.9-2-2V3c0-1.1,0.9-2,2-2h42c1.1,0,2,0.9,2,2V45z"/>
	<rect x="-564" y="24" width="24" height="1"/>
	<rect x="-564" y="17" width="24" height="1"/>
	<rect x="-564" y="11" width="24" height="1"/>
	<rect x="-564" y="30" width="18.5" height="1"/>
	<rect x="-564" y="36" width="12.5" height="1"/>
</g>
<path d="M-336,0h-27.4v6.9h-17.1c-1.9,0-3.4,1.5-3.4,3.4v34.3c0,1.9,1.5,3.4,3.4,3.4h34.3c1.9,0,3.4-1.5,3.4-3.4V27.4h6.9V0z
	 M-344,44.6c0,1.3-1,2.3-2.3,2.3h-34.3c-1.3,0-2.3-1-2.3-2.3V10.3c0-1.3,1-2.3,2.3-2.3h17.1v19.4h19.4V44.6z M-344,26.3h-18.3V8h16
	c1.3,0,2.3,1,2.3,2.3V26.3z M-337.1,26.3h-5.7v-16c0-1.9-1.5-3.4-3.4-3.4h-16V1.1h25.1V26.3z"/>
<g>
	<path d="M-435,0h-42c-1.7,0-3,1.3-3,3v42c0,1.7,1.3,3,3,3h42c1.7,0,3-1.3,3-3V3C-432,1.3-433.3,0-435,0z M-433,45c0,1.1-0.9,2-2,2
		h-42c-1.1,0-2-0.9-2-2V3c0-1.1,0.9-2,2-2h42c1.1,0,2,0.9,2,2V45z"/>
	<path d="M-468,36h24V12h-24V36z M-467,13h22v22h-22V13z"/>
</g>
<text transform="matrix(1 0 0 1 -666 72)"><tspan x="0" y="0" style="font-family:'MyriadPro-Regular'; font-size:12px;">with </tspan><tspan x="0" y="14.4" style="font-family:'MyriadPro-Regular'; font-size:12px;">tittle</tspan></text>
<text transform="matrix(1 0 0 1 -576 72)"><tspan x="0" y="0" style="font-family:'MyriadPro-Regular'; font-size:12px;">without </tspan><tspan x="0" y="14.4" style="font-family:'MyriadPro-Regular'; font-size:12px;">tittle</tspan></text>
<text transform="matrix(1 0 0 1 -480 72)"><tspan x="0" y="0" style="font-family:'MyriadPro-Regular'; font-size:12px;">same </tspan><tspan x="0" y="14.4" style="font-family:'MyriadPro-Regular'; font-size:12px;">window</tspan></text>
<text transform="matrix(1 0 0 1 -384 72)"><tspan x="0" y="0" style="font-family:'MyriadPro-Regular'; font-size:12px;">new</tspan><tspan x="0" y="14.4" style="font-family:'MyriadPro-Regular'; font-size:12px;">window</tspan></text>
<g>
	<path d="M-270,30h12V18h-12V30z M-269,19h10v10h-10V19z"/>
	<path d="M-243.5,0h-41.1c-1.9,0-3.5,1.6-3.5,3.5V18v12v14.5c0,1.9,1.6,3.5,3.5,3.5h41.1c1.9,0,3.5-1.6,3.5-3.5V30V18V3.5
		C-240,1.6-241.6,0-243.5,0z M-287,19h10v10h-10V19z M-241,29h-10V19h10V29z M-252,18v12h11v14.5c0,1.4-1.1,2.5-2.5,2.5h-41.1
		c-1.4,0-2.5-1.1-2.5-2.5V30h11V18h-11V3.5c0-1.4,1.1-2.5,2.5-2.5h41.1c1.4,0,2.5,1.1,2.5,2.5V18H-252z"/>
	<polygon points="-248.9,41.9 -245.8,38.8 -248.9,35.6 -249.6,36.4 -247.2,38.8 -249.6,41.1 	"/>
	<polygon points="-279.1,35.6 -282.2,38.8 -279.1,41.9 -278.4,41.1 -280.8,38.8 -278.4,36.4 	"/>
</g>
<g>
	<path d="M-147.5,0h-41.1c-1.9,0-3.5,1.6-3.5,3.5v41.1c0,1.9,1.6,3.5,3.5,3.5h41.1c1.9,0,3.5-1.6,3.5-3.5V3.5
		C-144,1.6-145.6,0-147.5,0z M-145,44.5c0,1.4-1.1,2.5-2.5,2.5h-41.1c-1.4,0-2.5-1.1-2.5-2.5V3.5c0-1.4,1.1-2.5,2.5-2.5h41.1
		c1.4,0,2.5,1.1,2.5,2.5V44.5z"/>
	<rect x="-186" y="23" width="18" height="1"/>
	<rect x="-186" y="29" width="13.9" height="1"/>
	<rect x="-186" y="35" width="9.4" height="1"/>
	<path d="M-163,36h13V23h-13V36z M-162,24h11v11h-11V24z"/>
	<rect x="-186" y="10" width="36" height="4"/>
</g>
<g>
	<path d="M-2787,1c1.1,0,2,0.9,2,2v42c0,1.1-0.9,2-2,2h-42c-1.1,0-2-0.9-2-2V3c0-1.1,0.9-2,2-2H-2787 M-2787,0h-42c-1.7,0-3,1.3-3,3
		v42c0,1.7,1.3,3,3,3h42c1.7,0,3-1.3,3-3V3C-2784,1.3-2785.3,0-2787,0L-2787,0z"/>
</g>
<g>
	<line class="st0" x1="-2820" y1="23.5" x2="-2796" y2="23.5"/>
</g>
<g>
	<line class="st1" x1="-2820" y1="11.5" x2="-2796" y2="11.5"/>
</g>
<g>
	<line class="st0" x1="-2820" y1="29.5" x2="-2801.5" y2="29.5"/>
</g>
<g>
	<line class="st0" x1="-2820" y1="35.5" x2="-2807.5" y2="35.5"/>
</g>
<g>
	<path d="M-2691,1c1.1,0,2,0.9,2,2v42c0,1.1-0.9,2-2,2h-42c-1.1,0-2-0.9-2-2V3c0-1.1,0.9-2,2-2H-2691 M-2691,0h-42c-1.7,0-3,1.3-3,3
		v42c0,1.7,1.3,3,3,3h42c1.7,0,3-1.3,3-3V3C-2688,1.3-2689.3,0-2691,0L-2691,0z"/>
</g>
<g>
	<line class="st0" x1="-2724" y1="24.5" x2="-2700" y2="24.5"/>
</g>
<g>
	<line class="st0" x1="-2724" y1="17.5" x2="-2700" y2="17.5"/>
</g>
<g>
	<line class="st0" x1="-2724" y1="11.5" x2="-2700" y2="11.5"/>
</g>
<g>
	<path d="M-2115,1c1.1,0,2,0.9,2,2v42c0,1.1-0.9,2-2,2h-42c-1.1,0-2-0.9-2-2V3c0-1.1,0.9-2,2-2H-2115 M-2115,0h-42c-1.7,0-3,1.3-3,3
		v42c0,1.7,1.3,3,3,3h42c1.7,0,3-1.3,3-3V3C-2112,1.3-2113.3,0-2115,0L-2115,0z"/>
</g>
<g>
	<line class="st0" x1="-2724" y1="30.5" x2="-2705.5" y2="30.5"/>
</g>
<g>
	<line class="st0" x1="-2724" y1="36.5" x2="-2711.5" y2="36.5"/>
</g>
<g>
	<g>
		<path d="M-2595,1c1.1,0,2,0.9,2,2v42c0,1.1-0.9,2-2,2h-42c-1.1,0-2-0.9-2-2V3c0-1.1,0.9-2,2-2H-2595 M-2595,0h-42
			c-1.7,0-3,1.3-3,3v42c0,1.7,1.3,3,3,3h42c1.7,0,3-1.3,3-3V3C-2592,1.3-2593.3,0-2595,0L-2595,0z"/>
	</g>
</g>
<g>
	<g>
		<path d="M-2505,7c1.1,0,2,0.9,2,2v30c0,1.1-0.9,2-2,2h-30c-1.1,0-2-0.9-2-2V9c0-1.1,0.9-2,2-2H-2505 M-2505,6h-30
			c-1.7,0-3,1.3-3,3v30c0,1.7,1.3,3,3,3h30c1.7,0,3-1.3,3-3V9C-2502,7.3-2503.3,6-2505,6L-2505,6z"/>
	</g>
</g>
<g>
	<g>
		<path d="M-2497,1v22h-22V1H-2497 M-2496,0h-24v24h24V0L-2496,0z"/>
	</g>
</g>
<g>
	<g>
		<path d="M-2605,13v22h-22V13H-2605 M-2604,12h-24v24h24V12L-2604,12z"/>
	</g>
</g>
<g>
	<g>
		<path d="M-2419,19v10h-10V19H-2419 M-2418,18h-12v12h12V18L-2418,18z"/>
	</g>
</g>
<g>
	<g>
		<path d="M-2401,19v10h-10V19H-2401 M-2400,18h-12v12h12V18L-2400,18z"/>
	</g>
</g>
<g>
	<g>
		<path d="M-2437,19v10h-10V19H-2437 M-2436,18h-12v12h12V18L-2436,18z"/>
	</g>
</g>
<g>
	<g>
		<path d="M-2307.5,1c1.4,0,2.5,1.1,2.5,2.5v41.1c0,1.4-1.1,2.5-2.5,2.5h-41.1c-1.4,0-2.5-1.1-2.5-2.5V3.5c0-1.4,1.1-2.5,2.5-2.5
			H-2307.5 M-2307.5,0h-41.1c-1.9,0-3.5,1.6-3.5,3.5v41.1c0,1.9,1.6,3.5,3.5,3.5h41.1c1.9,0,3.5-1.6,3.5-3.5V3.5
			C-2304,1.6-2305.6,0-2307.5,0L-2307.5,0z"/>
	</g>
</g>
<g>
	<g>
		<path d="M-2403.5,1c1.4,0,2.5,1.1,2.5,2.5v41.1c0,1.4-1.1,2.5-2.5,2.5h-41.1c-1.4,0-2.5-1.1-2.5-2.5V3.5c0-1.4,1.1-2.5,2.5-2.5
			H-2403.5 M-2403.5,0h-41.1c-1.9,0-3.5,1.6-3.5,3.5v41.1c0,1.9,1.6,3.5,3.5,3.5h41.1c1.9,0,3.5-1.6,3.5-3.5V3.5
			C-2400,1.6-2401.6,0-2403.5,0L-2403.5,0z"/>
	</g>
</g>
<text transform="matrix(1 0 0 1 -2826 72)"><tspan x="0" y="0" style="font-family:'MyriadPro-Regular'; font-size:12px;">with </tspan><tspan x="0" y="14.4" style="font-family:'MyriadPro-Regular'; font-size:12px;">tittle</tspan></text>
<text transform="matrix(1 0 0 1 -2736 72)"><tspan x="0" y="0" style="font-family:'MyriadPro-Regular'; font-size:12px;">without </tspan><tspan x="0" y="14.4" style="font-family:'MyriadPro-Regular'; font-size:12px;">tittle</tspan></text>
<text transform="matrix(1 0 0 1 -2640 72)"><tspan x="0" y="0" style="font-family:'MyriadPro-Regular'; font-size:12px;">same </tspan><tspan x="0" y="14.4" style="font-family:'MyriadPro-Regular'; font-size:12px;">window</tspan></text>
<text transform="matrix(1 0 0 1 -2544 72)"><tspan x="0" y="0" style="font-family:'MyriadPro-Regular'; font-size:12px;">new</tspan><tspan x="0" y="14.4" style="font-family:'MyriadPro-Regular'; font-size:12px;">window</tspan></text>
<text transform="matrix(1 0 0 1 -2352 72)" style="font-family:'MyriadPro-Regular'; font-size:12px;">Banner</text>
<text transform="matrix(1 0 0 1 -2160 72)"><tspan x="0" y="0" style="font-family:'MyriadPro-Regular'; font-size:12px;">Article </tspan><tspan x="0" y="14.4" style="font-family:'MyriadPro-Regular'; font-size:12px;">List</tspan></text>
<polyline class="st2" points="-2409.3,36 -2406.5,38.8 -2409.3,41.5 "/>
<polyline class="st2" points="-2438.8,36 -2441.5,38.8 -2438.8,41.5 "/>
<g>
	<g>
		<line class="st0" x1="-2346" y1="23.5" x2="-2328" y2="23.5"/>
	</g>
	<g>
		<line class="st0" x1="-2346" y1="29.5" x2="-2332.1" y2="29.5"/>
	</g>
	<g>
		<line class="st0" x1="-2346" y1="35.5" x2="-2336.6" y2="35.5"/>
	</g>
</g>
<rect x="-2322.5" y="23.5" class="st2" width="12" height="12"/>
<g>
	<line class="st1" x1="-2346" y1="12" x2="-2310" y2="12"/>
</g>
<g>
	<defs>
		<path id="SVGID_1_" d="M-2251.7,14.2c5.4-10.9,18.7-15.3,29.5-9.8c10.9,5.4,15.3,18.7,9.8,29.5c-5.4,10.9-18.7,15.3-29.5,9.8
			C-2252.7,38.3-2257.1,25-2251.7,14.2 M-2253.5,13.3c-5.9,11.9-1.1,26.3,10.7,32.2s26.3,1.1,32.2-10.7s1.1-26.3-10.7-32.2
			S-2247.5,1.4-2253.5,13.3L-2253.5,13.3z"/>
	</defs>
	<use xlink:href="#SVGID_1_"  style="overflow:visible;"/>
	<clipPath id="SVGID_2_">
		<use xlink:href="#SVGID_1_"  style="overflow:visible;"/>
	</clipPath>
	<path class="st3" d="M-2221.3,2.5l-0.9,1.7c-10.9-5.4-24.2-1-29.6,9.9l-1.7-0.9C-2247.5,1.4-2233.1-3.4-2221.3,2.5z"/>
</g>
<g>
	<defs>
		<path id="SVGID_3_" d="M-72,3c11.6,0,21,9.4,21,21s-9.4,21-21,21s-21-9.4-21-21S-83.6,3-72,3 M-72,0c-13.3,0-24,10.7-24,24
			s10.7,24,24,24s24-10.7,24-24S-58.7,0-72,0L-72,0z"/>
	</defs>
	<use xlink:href="#SVGID_3_"  style="overflow:visible;fill:#CCCCCC;"/>
	<clipPath id="SVGID_4_">
		<use xlink:href="#SVGID_3_"  style="overflow:visible;"/>
	</clipPath>
	<g class="st4">
		<rect x="-72" y="-6" class="st5" width="24" height="30"/>
	</g>
</g>
<g>
	<path d="M-2125,13v4h-22v-4H-2125 M-2124,12h-24v6h24V12L-2124,12z"/>
</g>
<g>
	<path d="M-2125,25v4h-22v-4H-2125 M-2124,24h-24v6h24V24L-2124,24z"/>
</g>
<g>
	<path d="M-2125,37v4h-22v-4H-2125 M-2124,36h-24v6h24V36L-2124,36z"/>
</g>
<g>
	<path d="M45,0H3C1.3,0,0,1.3,0,3v42c0,1.7,1.3,3,3,3h42c1.7,0,3-1.3,3-3V3C48,1.3,46.7,0,45,0z M47,45c0,1.1-0.9,2-2,2H3
		c-1.1,0-2-0.9-2-2V3c0-1.1,0.9-2,2-2h42c1.1,0,2,0.9,2,2V45z"/>
	<path d="M12,18h24v-6H12V18z M13,13h22v4H13V13z"/>
	<path d="M12,30h24v-6H12V30z M13,25h22v4H13V25z"/>
	<path d="M12,42h24v-6H12V42z M13,37h22v4H13V37z"/>
</g>
</svg>
