<svg xmlns="http://www.w3.org/2000/svg" viewBox="0 0 91.231 43.51"><defs><style>.a{fill:#fff;}.b,.c{fill:none;}.b{stroke:#8d8c8c;}.c{stroke:#ccc;}.d{fill:#f2f2f2;}.e,.f{stroke:none;}.f{fill:#ccc;}</style></defs><g transform="translate(-9 -30.198)"><g class="a" transform="translate(9 30.198)"><path class="e" d="M 88.23096466064453 43.009765625 L 2.999996185302734 43.009765625 C 1.621490240097046 43.009765625 0.499996155500412 41.88827133178711 0.499996155500412 40.509765625 L 0.499996155500412 3.000000476837158 C 0.499996155500412 1.62149453163147 1.621490240097046 0.5000004768371582 2.999996185302734 0.5000004768371582 L 88.23096466064453 0.5000004768371582 C 89.60946655273438 0.5000004768371582 90.73096466064453 1.62149453163147 90.73096466064453 3.000000476837158 L 90.73096466064453 40.509765625 C 90.73096466064453 41.88827133178711 89.60946655273438 43.009765625 88.23096466064453 43.009765625 Z"/><path class="f" d="M 3 0.9999961853027344 C 1.897201538085938 0.9999961853027344 1 1.897193908691406 1 2.999996185302734 L 1 40.50976943969727 C 1 41.61257171630859 1.897201538085938 42.50976943969727 3 42.50976943969727 L 88.23095703125 42.50976943969727 C 89.33375549316406 42.50976943969727 90.23095703125 41.61257171630859 90.23095703125 40.50976943969727 L 90.23095703125 2.999996185302734 C 90.23095703125 1.897193908691406 89.33375549316406 0.9999961853027344 88.23095703125 0.9999961853027344 L 3 0.9999961853027344 M 3 -3.814697265625e-06 L 88.23095703125 -3.814697265625e-06 C 89.88780212402344 -3.814697265625e-06 91.23095703125 1.343143463134766 91.23095703125 2.999996185302734 L 91.23095703125 40.50976943969727 C 91.23095703125 42.16661834716797 89.88780212402344 43.50976943969727 88.23095703125 43.50976943969727 L 3 43.50976943969727 C 1.3431396484375 43.50976943969727 0 42.16661834716797 0 40.50976943969727 L 0 2.999996185302734 C 0 1.343143463134766 1.3431396484375 -3.814697265625e-06 3 -3.814697265625e-06 Z"/></g><g transform="translate(-405 -337)"><g transform="translate(420.326 391.5)"><line class="b" x2="67.61" transform="translate(0)"/><line class="b" x2="67.61" transform="translate(0 10)"/></g></g><line class="c" x2="90" transform="translate(9.5 45.5)"/><path class="d" d="M3,0H86a3,3,0,0,1,3,3V14a0,0,0,0,1,0,0H0a0,0,0,0,1,0,0V3A3,3,0,0,1,3,0Z" transform="translate(10 31)"/></g></svg>