<svg id="Layer_1" data-name="Layer 1" xmlns="http://www.w3.org/2000/svg" viewBox="0 0 48 48"><title>carousel-h</title><path d="M18,30H30V18H18Zm1-11H29V29H19Z"/><path d="M44.54,0H3.46A3.46,3.46,0,0,0,0,3.46V44.54A3.46,3.46,0,0,0,3.46,48H44.54A3.46,3.46,0,0,0,48,44.54V3.46A3.46,3.46,0,0,0,44.54,0ZM1,19H11V29H1ZM47,29H37V19H47ZM36,18V30H47V44.54A2.47,2.47,0,0,1,44.54,47H3.46A2.47,2.47,0,0,1,1,44.54V30H12V18H1V3.46A2.47,2.47,0,0,1,3.46,1H44.54A2.47,2.47,0,0,1,47,3.46V18Z"/><polygon points="39.1 41.85 42.21 38.75 39.1 35.65 38.4 36.35 40.79 38.75 38.4 41.15 39.1 41.85"/><polygon points="8.9 35.65 5.79 38.75 8.9 41.85 9.6 41.15 7.21 38.75 9.6 36.35 8.9 35.65"/></svg>