<svg xmlns="http://www.w3.org/2000/svg" viewBox="0 0 91.231 43.51"><defs><style>.a,.c,.d{fill:#fff;}.a{stroke:#ccc;}.b,.f{fill:none;}.b{stroke:#8d8c8c;}.d{stroke:#707070;}.e,.g{stroke:none;}.g{fill:#707070;}</style></defs><g transform="translate(-9 -30.198)"><g class="a" transform="translate(9 30.198)"><rect class="e" width="91.231" height="43.51" rx="3"/><rect class="f" x="0.5" y="0.5" width="90.231" height="42.51" rx="2.5"/></g><g transform="translate(-400 -343)"><g transform="translate(425.581 384.5)"><line class="b" x2="48" transform="translate(0)"/><line class="b" x2="48" transform="translate(0 10)"/><line class="b" x2="48" transform="translate(0 20)"/></g><g class="c" transform="translate(415 381)"><path class="e" d="M 5 6.5 L 2 6.5 C 1.172899961471558 6.5 0.5 5.827099800109863 0.5 5 L 0.5 2 C 0.5 1.172899961471558 1.172899961471558 0.5 2 0.5 L 5 0.5 C 5.827099800109863 0.5 6.5 1.172899961471558 6.5 2 L 6.5 5 C 6.5 5.827099800109863 5.827099800109863 6.5 5 6.5 Z"/><path class="g" d="M 2 1 C 1.448599815368652 1 1 1.448599815368652 1 2 L 1 5 C 1 5.551400184631348 1.448599815368652 6 2 6 L 5 6 C 5.551400184631348 6 6 5.551400184631348 6 5 L 6 2 C 6 1.448599815368652 5.551400184631348 1 5 1 L 2 1 M 2 0 L 5 0 C 6.104569911956787 0 7 0.8954300880432129 7 2 L 7 5 C 7 6.104569911956787 6.104569911956787 7 5 7 L 2 7 C 0.8954300880432129 7 0 6.104569911956787 0 5 L 0 2 C 0 0.8954300880432129 0.8954300880432129 0 2 0 Z"/></g><g class="d" transform="translate(415 391)"><rect class="e" width="7" height="7" rx="2"/><rect class="f" x="0.5" y="0.5" width="6" height="6" rx="1.5"/></g><g class="d" transform="translate(415 401)"><rect class="e" width="7" height="7" rx="2"/><rect class="f" x="0.5" y="0.5" width="6" height="6" rx="1.5"/></g></g></g></svg>