<svg xmlns="http://www.w3.org/2000/svg" viewBox="0 0 93 19"><defs><style>.a{fill:#fff;}.a,.b{stroke:#ccc;}.b{fill:#f2f2f2;}.c{fill:#707070;}.d{stroke:none;}.e{fill:none;}</style></defs><g transform="translate(-408 -389)"><g class="a" transform="translate(408 389)"><rect class="d" width="93" height="19" rx="3"/><rect class="e" x="0.5" y="0.5" width="92" height="18" rx="2.5"/></g><g class="b" transform="translate(480 389)"><path class="d" d="M0,0H18a3,3,0,0,1,3,3V16a3,3,0,0,1-3,3H0a0,0,0,0,1,0,0V0A0,0,0,0,1,0,0Z"/><path class="e" d="M1,.5H18A2.5,2.5,0,0,1,20.5,3V16A2.5,2.5,0,0,1,18,18.5H1A.5.5,0,0,1,.5,18V1A.5.5,0,0,1,1,.5Z"/></g><path class="c" d="M9.732,3.571H.268A.269.269,0,0,1,0,3.3V2.5A1.072,1.072,0,0,1,1.071,1.429H2.143V.268A.269.269,0,0,1,2.411,0H3.3a.269.269,0,0,1,.268.268V1.429H6.429V.268A.269.269,0,0,1,6.7,0h.893a.269.269,0,0,1,.268.268V1.429H8.929A1.072,1.072,0,0,1,10,2.5v.8A.269.269,0,0,1,9.732,3.571ZM.268,4.286H9.732A.269.269,0,0,1,10,4.554v5.8a1.072,1.072,0,0,1-1.071,1.071H1.071A1.072,1.072,0,0,1,0,10.357v-5.8A.269.269,0,0,1,.268,4.286ZM2.857,8.839a.269.269,0,0,0-.268-.268H1.7a.269.269,0,0,0-.268.268v.893A.269.269,0,0,0,1.7,10h.893a.269.269,0,0,0,.268-.268Zm0-2.857a.269.269,0,0,0-.268-.268H1.7a.269.269,0,0,0-.268.268v.893a.269.269,0,0,0,.268.268h.893a.269.269,0,0,0,.268-.268ZM5.714,8.839a.269.269,0,0,0-.268-.268H4.554a.269.269,0,0,0-.268.268v.893A.269.269,0,0,0,4.554,10h.893a.269.269,0,0,0,.268-.268Zm0-2.857a.269.269,0,0,0-.268-.268H4.554a.269.269,0,0,0-.268.268v.893a.269.269,0,0,0,.268.268h.893a.269.269,0,0,0,.268-.268ZM8.571,8.839A.269.269,0,0,0,8.3,8.571H7.411a.269.269,0,0,0-.268.268v.893A.269.269,0,0,0,7.411,10H8.3a.269.269,0,0,0,.268-.268Zm0-2.857A.269.269,0,0,0,8.3,5.714H7.411a.269.269,0,0,0-.268.268v.893a.269.269,0,0,0,.268.268H8.3a.269.269,0,0,0,.268-.268Z" transform="translate(485 392)"/></g></svg>