<svg id="Layer_1" data-name="Layer 1" xmlns="http://www.w3.org/2000/svg" viewBox="0 0 48 48"><title>featured-article</title><path d="M44.54,0H3.46A3.46,3.46,0,0,0,0,3.46V44.54A3.46,3.46,0,0,0,3.46,48H44.54A3.46,3.46,0,0,0,48,44.54V3.46A3.46,3.46,0,0,0,44.54,0ZM47,44.54A2.47,2.47,0,0,1,44.54,47H3.46A2.47,2.47,0,0,1,1,44.54V3.46A2.47,2.47,0,0,1,3.46,1H44.54A2.47,2.47,0,0,1,47,3.46Z"/><rect x="6" y="23" width="18" height="1"/><rect x="6" y="29" width="13.88" height="1"/><rect x="6" y="35" width="9.38" height="1"/><path d="M29,36H42V23H29Zm1-12H41V35H30Z"/><rect x="6" y="10" width="36" height="4"/></svg>