<svg id="Layer_1" data-name="Layer 1" xmlns="http://www.w3.org/2000/svg" xmlns:xlink="http://www.w3.org/1999/xlink" viewBox="0 0 48 48"><defs><style>.cls-1{fill:#ccc;}.cls-2{clip-path:url(#clip-path);}.cls-3{fill:#2994ff;}</style><clipPath id="clip-path"><path class="cls-1" d="M24,3A21,21,0,1,1,3,24,21,21,0,0,1,24,3m0-3A24,24,0,1,0,48,24,24,24,0,0,0,24,0Z"/></clipPath></defs><title>svg-loader</title><path class="cls-1" d="M24,3A21,21,0,1,1,3,24,21,21,0,0,1,24,3m0-3A24,24,0,1,0,48,24,24,24,0,0,0,24,0Z"/><g class="cls-2"><rect class="cls-3" x="24" y="-6" width="24" height="30"/></g></svg>