<svg xmlns="http://www.w3.org/2000/svg" viewBox="0 0 74.116 40.71"><defs><style>.a{fill:none;}.b,.d{fill:#00b9ff;}.b{font-size:29px;font-family:SegoeUI-Italic, Segoe UI;font-style:italic;}.c,.d{stroke:none;}</style></defs><g transform="translate(-131.883 -17)"><g class="a" transform="translate(131.883 19.048)"><path class="c" d="M67.176,38.662H19.33A19.33,19.33,0,0,1,0,19.331,19.02,19.02,0,0,1,1.581,11.7,20.18,20.18,0,0,1,6,5.333,19.115,19.115,0,0,1,19.33,0H74.116l-6.94,38.661Z"/><path class="d" d="M 64.66644287109375 35.66129684448242 L 70.52980041503906 2.999997854232788 L 19.33019638061523 2.999997854232788 C 15.08682155609131 2.999997854232788 10.99402141571045 4.630397796630859 8.099346160888672 7.474997997283936 C 6.467246532440186 9.076035499572754 5.199621200561523 10.89942264556885 4.331696510314941 12.89449787139893 C 3.448046445846558 14.92573547363281 2.999996423721313 17.09131050109863 2.999996423721313 19.33109855651855 C 2.999996423721313 23.69304847717285 4.698633670806885 27.79393577575684 7.782983779907227 30.87831115722656 C 10.86735916137695 33.96267318725586 14.96823406219482 35.66129684448242 19.33019638061523 35.66129684448242 L 64.66644287109375 35.66129684448242 M 67.17569732666016 38.66212463378906 L 67.17584991455078 38.66129684448242 L 19.33019638061523 38.66129684448242 C 14.16689682006836 38.66129684448242 9.31265926361084 36.65061187744141 5.661671161651611 32.9996337890625 C 2.010696411132813 29.34863471984863 -3.625488261604914e-06 24.49439811706543 -3.625488261604914e-06 19.33109855651855 C -3.625488261604914e-06 16.67706108093262 0.5318338871002197 14.10883522033691 1.580733895301819 11.6977481842041 C 2.603308916091919 9.347185134887695 4.089658737182617 7.205910205841064 5.998496532440186 5.33339786529541 C 9.44762134552002 1.943947911262512 14.30683422088623 -2.090454017888987e-06 19.33019638061523 -2.090454017888987e-06 L 74.11631774902344 -2.090454017888987e-06 L 67.17584991455078 38.66129684448242 L 67.17569732666016 38.66212463378906 Z"/></g><text class="b" transform="translate(142 48)"><tspan x="0" y="0">CCL</tspan></text></g></svg>