<svg xmlns="http://www.w3.org/2000/svg" viewBox="0 0 27.824 28"><defs><style>.a{opacity:0.4;}</style></defs><g class="a"><path d="M30.053,27.073v-.049l-.032.049Z" transform="translate(-15.09 -14.441)"/><path d="M29.261,4.667H5.549A2.031,2.031,0,0,0,3.494,6.673V30.662a2.031,2.031,0,0,0,2.055,2.005H29.261a2.032,2.032,0,0,0,2.057-2.005V6.673A2.032,2.032,0,0,0,29.261,4.667ZM11.928,28.107h-4.2V15.463h4.2Zm-2.1-14.37H9.8a2.19,2.19,0,1,1,.056-4.368,2.191,2.191,0,1,1-.028,4.368Zm17.255,14.37h-4.2V21.341c0-1.7-.608-2.859-2.129-2.859a2.3,2.3,0,0,0-2.157,1.537,2.877,2.877,0,0,0-.138,1.025v7.061h-4.2s.055-11.458,0-12.643h4.2v1.79a4.173,4.173,0,0,1,3.788-2.088c2.765,0,4.838,1.808,4.838,5.691v7.251Z" transform="translate(-3.494 -4.667)"/></g></svg>