<svg xmlns="http://www.w3.org/2000/svg" viewBox="0 0 34.455 28"><defs><style>.a{opacity:0.4;}</style></defs><path class="a" d="M38.029,13.64a14.065,14.065,0,0,1-4.06,1.113,7.081,7.081,0,0,0,3.108-3.911,14.15,14.15,0,0,1-4.489,1.716,7.075,7.075,0,0,0-12.044,6.447A20.071,20.071,0,0,1,5.973,11.62a7.078,7.078,0,0,0,2.188,9.438,7.049,7.049,0,0,1-3.2-.885c0,.029,0,.059,0,.09a7.074,7.074,0,0,0,5.671,6.931,7.107,7.107,0,0,1-1.863.248,7,7,0,0,1-1.33-.127,7.076,7.076,0,0,0,6.6,4.909A14.264,14.264,0,0,1,3.574,35.15,20,20,0,0,0,14.41,38.326c13,0,20.112-10.771,20.112-20.112q0-.46-.02-.916A14.317,14.317,0,0,0,38.029,13.64Z" transform="translate(-3.574 -10.326)"/></svg>